<?xml version="1.0" standalone="no"?>
<!DOCTYPE svg PUBLIC "-//W3C//DTD SVG 20010904//EN"
 "http://www.w3.org/TR/2001/REC-SVG-20010904/DTD/svg10.dtd">
<svg version="1.0" xmlns="http://www.w3.org/2000/svg"
 width="512.000000pt" height="512.000000pt" viewBox="0 0 512.000000 512.000000"
 preserveAspectRatio="xMidYMid meet">
<metadata>
Created by potrace 1.14, written by Peter Selinger 2001-2017
</metadata>
<g transform="translate(0.000000,512.000000) scale(0.100000,-0.100000)"
fill="#000000" stroke="none">
<path d="M415 5110 c-153 -31 -295 -140 -362 -280 -55 -115 -53 1 -53 -2276 0
-2284 -3 -2142 50 -2259 65 -143 217 -259 372 -285 42 -6 770 -10 2153 -10
1688 0 2101 3 2145 14 171 40 306 160 367 326 l28 75 0 2145 0 2145 -23 65
c-53 155 -166 266 -326 322 l-81 28 -2115 -1 c-1163 -1 -2133 -5 -2155 -9z"/>
</g>
</svg>
